<svg width="100" height="100" viewBox="0 0 100 100" fill="none" xmlns="http://www.w3.org/2000/svg">
<path d="M25.5558 90.1619L25.4939 89.5798L24.9286 89.732C23.9578 89.9934 22.9274 90.125 21.875 90.125C15.2566 90.125 9.875 84.7434 9.875 78.125C9.875 76.7378 10.1188 75.3871 10.5503 74.1489L10.7107 73.6887L10.2547 73.5166C4.54548 71.3615 0.5 65.8409 0.5 59.375C0.5 53.3447 4.03465 48.1263 9.15885 45.706L9.73043 45.436L9.3361 44.942C7.70636 42.9001 6.75 40.3144 6.75 37.5C6.75 31.7448 10.7993 26.9434 16.2006 25.7619L16.7233 25.6475L16.5738 25.1338C16.2755 24.1081 16.125 23.0031 16.125 21.875C16.125 16.2696 19.9876 11.5433 25.1811 10.2309L25.5187 10.1456L25.5557 9.79936C26.1147 4.58243 30.5507 0.5 35.9375 0.5C41.6965 0.5 46.375 5.17849 46.375 10.9375V89.0625C46.375 94.8215 41.6965 99.5 35.9375 99.5C30.5518 99.5 26.115 95.4187 25.5558 90.1619ZM74.4444 9.80112L74.4827 10.1462L74.8193 10.231C80.0317 11.5434 83.875 16.2497 83.875 21.875C83.875 23.0031 83.7245 24.1081 83.4262 25.1338L83.2762 25.6493L83.801 25.7622C89.1996 26.9244 93.25 31.7435 93.25 37.5C93.25 40.3144 92.2936 42.9001 90.6639 44.942L90.2696 45.436L90.8411 45.706C95.9654 48.1263 99.5 53.3447 99.5 59.375C99.5 65.8409 95.4545 71.3615 89.7453 73.5166L89.2893 73.6887L89.4497 74.1489C89.8812 75.3871 90.125 76.7378 90.125 78.125C90.125 84.7434 84.7434 90.125 78.125 90.125C77.0726 90.125 76.0422 89.9934 75.0714 89.732L74.5061 89.5798L74.4442 90.1619C73.885 95.4187 69.4482 99.5 64.0625 99.5C58.3035 99.5 53.625 94.8215 53.625 89.0625V10.9375C53.625 5.17849 58.3035 0.5 64.0625 0.5C69.4478 0.5 73.8665 4.58129 74.4444 9.80112Z" fill="#F1F1F1F1" stroke="white"/>
</svg>
